<?xml version="1.0" encoding="UTF-8"?>
<svg id="_图层_1" data-name="图层 1" xmlns="http://www.w3.org/2000/svg" viewBox="0 0 750 1334">
  <defs>
    <style>
      .cls-1 {
        stroke-width: 0px;
      }
    </style>
  </defs>
  <path class="cls-1" d="M221.68-.61v299.89h-37.49V-.61h37.49ZM263.33-.61l6.25,149.94h-37.49L225.84-.61h37.49ZM279.99-.61h37.49l-6.25,149.94h-37.49L279.99-.61ZM321.64-.61h37.49v299.89h-37.49V-.61Z"/>
  <path class="cls-1" d="M376.62,262.63h170.77v36.65h-170.77v-36.65ZM429.52,99.35h59.98v36.65h-59.98v-36.65ZM459.51,248.46l49.98-154.94,34.99,11.66-49.98,154.94-34.99-11.66ZM520.32-3.11h37.49v49.98h-37.49V-3.11Z"/>
  <path class="cls-1" d="M-2.9,474.53h35.74v284.3H-2.9v-284.3ZM72.65,556.26h-35.74c0-50.35,28.43-91.21,62.96-91.21s62.14,40.87,62.14,91.21v202.56h-35.74v-202.56c0-25.47-9.34-39.09-26.4-39.09s-27.21,13.62-27.21,39.09Z"/>
  <path class="cls-1" d="M178.25,706.7h166.53v52.12h-166.53v-52.12ZM229.84,474.53h58.49v52.12h-58.49v-52.12ZM259.08,686.57l48.74-220.33,34.12,16.58-48.74,220.33-34.12-16.58ZM318.38,328.82h36.55v71.07h-36.55v-71.07Z"/>
  <path class="cls-1" d="M355.43,323.79l35.96-3.82,47.45,446.95-35.96,3.82-47.45-446.95ZM427.82,301.04c19.21-2.04,39,32.58,43.65,76.35l40.53,381.77-35.96,3.82-40.53-381.77c-.4-3.73-1.92-6.39-3.55-6.22s-2.56,3.1-2.17,6.82l-28.61,3.04c-4.65-43.76,7.44-81.77,26.65-83.81ZM500.98,293.28c19.62-2.08,39,32.58,43.65,76.35l40.53,381.77-35.97,3.82-40.53-381.77c-.4-3.73-1.92-6.39-3.55-6.22s-2.56,3.1-2.17,6.82l-28.61,3.04c-4.55-42.83,7.44-81.77,26.65-83.81Z"/>
  <path class="cls-1" d="M584.42,706.7h166.53v52.12h-166.53v-52.12ZM636,474.53h58.49v52.12h-58.49v-52.12ZM665.25,686.57l48.74-220.33,34.12,16.58-48.74,220.33-34.12-16.58ZM724.55,328.82h36.55v71.07h-36.55v-71.07Z"/>
  <path class="cls-1" d="M374.1,827.16h-174v-40.56h174v40.56ZM200.1,967.27h174v40.56h-174v-40.56ZM316.26,836.38h57.36l-115.2,121.67h-57.36l115.2-121.67Z"/>
  <path class="cls-1" d="M411.43,925.66c-27.98-73.94-18.47-146.48,22.05-161.81,40.51-15.33,95.67,32.74,123.65,106.68l-34.28,12.97c-16.57-43.79-41.31-65.62-65.46-56.48-24.15,9.14-28.24,41.87-11.67,85.66l37.22,98.35c16.84,44.51,41.58,66.34,65.73,57.2s28.24-41.87,11.4-86.38l34.28-12.97c28.25,74.66,18.74,147.2-21.77,162.53-40.51,15.33-95.67-32.74-123.92-107.4l-37.22-98.35ZM586.46,948.06l-103.62,39.21-23.91-63.17,103.62-39.21,23.91,63.17Z"/>
  <path class="cls-1" d="M287.07,1036.1l-97.46,299.89-35.82-11.66,97.46-299.89,35.82,11.66ZM293.32,1024.86l35.82,10.83-44.15,149.94-35.82-10.83,44.15-149.94ZM386.62,1024.44l35.82,11.66-97.46,299.89-35.82-11.66,97.46-299.89ZM344.55,1024.03l34.99,12.49-53.31,149.94-34.99-12.5,53.31-149.94Z"/>
  <path class="cls-1" d="M402.03,1258.52v-57.06h18.33c0-42.9,34.57-77.89,77.89-77.89s77.89,34.99,77.89,77.89h-36.65c0-25.41-15.41-41.23-41.23-41.23s-41.23,15.83-41.23,41.23h-18.33v57.06h-18.33c0,25.82,15.41,41.65,41.23,41.65s41.23-15.83,41.23-41.65h36.65c0,43.32-34.57,78.3-77.89,78.3s-77.89-34.99-77.89-78.3h18.33ZM557.8,1246.44h-109.54v-36.65h109.54v36.65Z"/>
</svg>